<!DOCTYPE svg PUBLIC "-//W3C//DTD SVG 1.1//EN" "http://www.w3.org/Graphics/SVG/1.1/DTD/svg11.dtd">
<!-- Uploaded to: SVG Repo, www.svgrepo.com, Transformed by: SVG Repo Mixer Tools -->
<svg width="256px" height="256px" viewBox="0 0 48 48" id="svg5" version="1.1" xml:space="preserve" xmlns="http://www.w3.org/2000/svg" xmlns:svg="http://www.w3.org/2000/svg" fill="#000000">

<g id="SVGRepo_bgCarrier" stroke-width="0"/>

<g id="SVGRepo_tracerCarrier" stroke-linecap="round" stroke-linejoin="round"/>

<g id="SVGRepo_iconCarrier"> <defs id="defs2"/> <g id="layer1" transform="translate(-26,-449)"> <path d="m 69.59375,472.55061 -8.806641,3.91406 h -24.09375 a 1,1 0 0 0 -1,1 1,1 0 0 0 1,1 H 61 a 1.0001,1.0001 0 0 0 0.40625,-0.0859 l 9,-4 a 1,1 0 0 0 0.507812,-1.32031 1,1 0 0 0 -1.320312,-0.50781 z M 30,476.46467 a 1,1 0 0 0 -1,1 1,1 0 0 0 1,1 h 2.677734 a 1,1 0 0 0 1,-1 1,1 0 0 0 -1,-1 z" id="path964" style="color:#000000;fill:#ff5576;fill-opacity:1;fill-rule:evenodd;stroke-linecap:round;stroke-linejoin:round;stroke-miterlimit:4.1"/> <path d="m 69.59375,477.55061 -8.806641,3.91406 H 30 a 1,1 0 0 0 -1,1 1,1 0 0 0 1,1 h 31 a 1.0001,1.0001 0 0 0 0.40625,-0.0859 l 9,-4 a 1,1 0 0 0 0.507812,-1.32031 1,1 0 0 0 -1.320312,-0.50781 z" id="path13373" style="color:#000000;fill:#808b9b;fill-opacity:1;fill-rule:evenodd;stroke-linecap:round;stroke-linejoin:round;stroke-miterlimit:4.1"/> <path d="m 69.59375,467.55061 -8.806641,3.91406 H 30 a 1,1 0 0 0 -1,1 1,1 0 0 0 1,1 h 31 a 1.0001,1.0001 0 0 0 0.40625,-0.0859 l 9,-4 a 1,1 0 0 0 0.507812,-1.32031 1,1 0 0 0 -1.320312,-0.50781 z" id="path13435" style="color:#000000;fill:#808b9b;fill-opacity:1;fill-rule:evenodd;stroke-linecap:round;stroke-linejoin:round;stroke-miterlimit:4.1"/> <path d="m 69.59375,462.55061 -8.806641,3.91406 H 30 a 1,1 0 0 0 -1,1 1,1 0 0 0 1,1 h 31 a 1.0001,1.0001 0 0 0 0.40625,-0.0859 l 9,-4 a 1,1 0 0 0 0.507812,-1.32031 1,1 0 0 0 -1.320312,-0.50781 z" id="path13437" style="color:#000000;fill:#808b9b;fill-opacity:1;fill-rule:evenodd;stroke-linecap:round;stroke-linejoin:round;stroke-miterlimit:4.1"/> <path d="m 30,462.46467 9,-4 h 31 l -9,4 c -10.333333,0 -20.666667,0 -31,0 z" id="path59880" style="color:#000000;fill:#556ee6;fill-opacity:1;fill-rule:evenodd;stroke-width:2;stroke-linecap:round;stroke-linejoin:round;stroke-miterlimit:4.1;-inkscape-stroke:none"/> <path d="M 55.114945,457.46467 H 58 l -7,6 v 24 H 39 v -24 l 7,-6 h 2.919237" id="path59872" style="color:#000000;fill:#e7e7e7;fill-opacity:1;fill-rule:evenodd;stroke-width:2;stroke-linecap:round;stroke-linejoin:round;stroke-miterlimit:4.1"/> <path d="m 45.999998,457.46467 -6.999998,6 -3e-6,20.7871 a 12.158244,20.424366 42.46283 0 0 9.85156,-5.96874 12.158244,20.424366 42.46283 0 0 2.148441,-2.1543 l 3e-6,-12.66406 6.999998,-6 -2.884761,-1e-5 -6.195311,1e-5 z" id="path61039" style="fill:#fafafa;fill-opacity:1;fill-rule:evenodd;stroke:none;stroke-width:2;stroke-linecap:round;stroke-linejoin:round;stroke-miterlimit:4.1;stroke-opacity:1"/> <path d="m 45,468.21467 a 1.0057667,0.99425681 0 0 0 -1.005859,0.9961 v 1.15625 c -1.289538,0.40756 -2.250001,1.57366 -2.250001,2.96679 0,1.73708 1.493182,3.125 3.25586,3.125 0.721175,0 1.242188,0.52141 1.242188,1.13672 -10e-7,0.61534 -0.521023,1.13281 -1.242188,1.13281 -0.721169,0 -1.24414,-0.51747 -1.244141,-1.13281 a 1.0057667,0.99425681 0 0 0 -1.003906,-0.99609 1.0057667,0.99425681 0 0 0 -1.007813,0.99609 c 3e-6,1.39313 0.960461,2.55924 2.250001,2.9668 v 1.15625 A 1.0057667,0.99425681 0 0 0 45,482.71467 a 1.0057667,0.99425681 0 0 0 1.00586,-0.99609 v -1.15625 c 1.289054,-0.40756 2.248043,-1.57367 2.248046,-2.9668 0,-1.73706 -1.49123,-3.125 -3.253906,-3.125 -0.721179,0 -1.244141,-0.52137 -1.244141,-1.13672 0,-0.61532 0.522957,-1.13281 1.244141,-1.13281 0.721179,0 1.242188,0.51749 1.242188,1.13281 a 1.0057667,0.99425681 0 0 0 1.005859,0.9961 1.0057667,0.99425681 0 0 0 1.005859,-0.9961 c 0,-1.39313 -0.958993,-2.55923 -2.248046,-2.96679 v -1.15625 A 1.0057667,0.99425681 0 0 0 45,468.21467 Z" id="path13283" style="color:#000000;fill:#808b9b;fill-opacity:1;fill-rule:evenodd;stroke:none;stroke-width:0.99999;stroke-linecap:round;stroke-linejoin:round;stroke-miterlimit:4.1;stroke-opacity:1"/> <path d="m 69.59375,482.55061 -8.806641,3.91406 h -1.794922 a 1,1 0 0 0 -1,1 1,1 0 0 0 1,1 H 61 a 1.0001,1.0001 0 0 0 0.40625,-0.0859 l 9,-4 a 1,1 0 0 0 0.507812,-1.32031 1,1 0 0 0 -1.320312,-0.50781 z M 30,486.46467 a 1,1 0 0 0 -1,1 1,1 0 0 0 1,1 h 24.775391 a 1,1 0 0 0 1,-1 1,1 0 0 0 -1,-1 z" id="path13371" style="color:#000000;fill:#808b9b;fill-opacity:1;fill-rule:evenodd;stroke-linecap:round;stroke-linejoin:round;stroke-miterlimit:4.1;-inkscape-stroke:none"/> </g> </g>

</svg>