<svg width="501" height="120" viewBox="0 0 501 120" fill="none" xmlns="http://www.w3.org/2000/svg">
<g clip-path="url(#clip0_11_2)">
<path d="M430.942 0C404.946 0 383.538 21.0191 383.538 47.3885C383.538 73.3758 404.564 94.7771 430.942 94.7771C456.938 94.7771 478.346 73.758 478.346 47.3885C478.346 21.0191 456.938 0 430.942 0ZM467.642 21.0191C465.348 22.5478 462.672 24.0764 459.996 25.6051C458.467 22.5478 456.555 19.4904 454.261 16.8153C456.173 15.6688 458.084 14.1401 459.614 12.9936C463.054 14.9045 465.73 17.9618 467.642 21.0191ZM447.763 5.35032C451.585 6.87898 455.026 8.78981 458.467 11.465C456.938 12.9936 455.026 14.1401 453.115 15.2866C450.821 12.6115 448.145 10.3185 445.469 8.02548C446.233 6.87898 446.998 6.11465 447.763 5.35032ZM451.585 16.051C448.909 17.5796 446.233 18.3439 443.557 19.4904C442.41 16.8153 441.264 14.1401 439.734 11.8471C441.264 11.0828 442.793 10.3185 443.94 9.17197C446.616 11.0828 449.292 13.3758 451.585 16.051ZM445.851 4.58599C445.086 5.35032 444.322 6.11465 443.94 6.87898C441.264 5.35032 438.97 3.82166 435.911 2.67516C439.352 2.67516 442.793 3.43949 445.851 4.58599ZM442.41 8.02548C441.264 8.78981 440.117 9.55414 438.97 9.93631C437.441 7.64331 435.911 5.73248 434.382 3.43949C437.058 4.58599 439.734 6.11465 442.41 8.02548ZM431.706 3.82166C433.618 5.73248 435.147 8.02548 436.676 10.7006C435.147 11.0828 433.618 11.465 431.706 11.465V3.82166ZM431.706 13.3758C433.618 13.3758 435.911 12.9936 437.823 12.2293C439.352 14.5223 440.499 17.1975 441.646 19.8726C438.588 20.6369 435.147 21.0191 431.706 21.4013V13.3758ZM429.795 3.82166V11.465C428.266 11.465 426.736 11.0828 424.825 10.7006C426.736 8.40764 428.266 6.11465 429.795 3.82166ZM423.296 9.93631C422.149 9.55414 420.62 8.78981 419.855 8.02548C422.531 6.49681 425.207 4.96815 427.883 3.82166C425.972 5.73248 424.443 7.64331 423.296 9.93631ZM425.972 2.29299C423.296 3.43949 420.62 4.96815 417.944 6.49682C417.179 5.73248 416.415 4.96815 416.032 4.20382C419.091 3.43949 422.531 2.67516 425.972 2.29299ZM458.467 83.3121C452.35 79.8726 451.968 74.9045 452.35 73.3758C452.732 71.465 453.879 72.2293 454.644 72.2293C458.849 72.2293 463.054 71.0828 468.406 65.3503C474.523 59.2357 476.434 45.4777 466.877 36.6879C456.938 27.1338 446.233 28.6624 439.352 37.4522C437.823 39.3631 434.382 40.5096 431.706 40.5096C427.119 40.5096 430.177 43.949 430.177 44.7134C430.177 45.4777 429.413 45.8599 429.03 45.8599C427.501 45.4777 428.266 47.7707 428.266 48.1529C428.266 48.535 427.501 49.2994 427.501 49.2994C425.59 49.2994 425.972 50.828 426.354 51.5924C426.354 51.9745 426.354 52.7389 425.59 53.121C424.825 53.5032 424.443 55.0318 424.443 56.1783C424.443 58.0892 426.354 59.6178 429.413 61.9108C432.471 64.2038 432.853 66.4968 432.853 68.0255C432.853 69.5541 433.235 72.2293 433.618 73.758C434.382 75.6688 434.382 79.4904 430.177 79.4904C424.825 79.8726 415.65 83.6943 414.885 84.0764C411.827 85.2229 408.004 85.6051 404.946 84.8408C403.417 83.6943 401.888 82.5478 400.358 81.0191C399.594 79.1083 400.741 76.8153 401.888 75.2866C403.799 77.1975 406.093 76.8153 407.622 76.8153C409.151 76.8153 416.032 75.6688 417.179 75.2866C418.326 74.9045 418.708 74.9045 419.091 75.2866C421.767 76.4331 425.59 76.4331 427.119 71.465C428.648 66.1147 425.207 67.6433 424.443 68.0255C424.06 68.4076 423.296 68.0255 423.678 67.6433C424.443 66.4968 423.296 66.4968 422.914 66.4968C421.384 66.4968 419.473 68.0255 419.091 68.4076C418.326 68.7898 417.944 68.7898 417.561 68.7898C415.65 67.6433 409.916 69.172 408.004 66.1146C408.004 65.3503 406.475 52.7389 405.71 50.4459C405.71 50.0637 405.328 49.2994 406.093 48.535C407.622 46.242 411.445 48.535 413.739 48.535C416.415 48.535 416.797 47.3885 417.561 46.6242C418.326 45.8599 418.708 46.242 419.091 45.8599C419.473 45.4777 419.091 45.0955 419.091 44.7134C419.091 44.3312 419.473 44.7134 419.855 44.3312C420.238 43.949 419.855 43.1847 419.855 42.8025C420.62 41.656 422.149 42.4204 421.384 40.1274C421.002 38.5987 421.767 37.0701 422.531 36.3057C423.678 34.7771 428.648 27.8981 420.238 20.6369C412.209 13.758 403.799 14.5223 398.447 20.2548C393.095 25.9873 395.771 34.3949 396.153 36.6879C396.535 38.9809 395.006 40.8917 393.095 41.656C391.566 42.4204 388.125 44.7134 385.831 46.6242C386.214 28.2803 397.3 12.2293 414.121 5.73248C414.885 6.49682 415.65 7.64331 416.415 8.40764C414.503 9.93631 410.298 13.3758 410.298 13.3758C410.298 13.3758 410.68 13.3758 411.445 13.758C411.827 13.758 412.592 14.1401 412.592 14.1401C412.592 14.1401 416.032 11.0828 417.944 9.93631C419.091 11.0828 420.62 11.8471 422.149 12.6115C421.384 14.1401 419.091 17.9618 419.091 17.9618C419.091 17.9618 419.473 18.3439 419.855 18.3439C420.238 18.7261 420.62 18.7261 420.62 18.7261C420.62 18.7261 422.914 14.5223 423.678 12.9936C425.59 13.758 427.501 14.1401 429.413 14.1401V21.7834C428.266 21.7834 425.59 21.7834 424.443 21.4013H423.678L424.06 22.1656C424.443 22.5478 424.443 22.9299 424.825 23.3121H429.413V37.4522H431.324V34.0127C434.382 34.0127 436.676 33.6306 439.352 33.2484L442.028 30.9554H440.499C437.441 31.3376 434.765 31.7197 432.471 31.7197H431.324V22.9299C434.765 22.9299 438.588 22.5478 442.028 21.4013L444.704 29.4268L446.616 28.6624L443.94 20.6369C446.998 19.8726 449.674 18.3439 452.35 17.1975C454.644 19.8726 456.555 22.9299 458.084 25.9873C456.555 26.7516 454.261 27.5159 454.261 27.5159C456.173 27.8981 457.702 28.2803 457.702 28.2803C457.702 28.2803 458.467 27.8981 458.849 27.8981C458.849 28.2803 459.231 29.0446 459.231 29.0446L461.907 30.1911L461.525 29.4268C461.525 29.4268 460.76 27.5159 460.378 27.1338C463.054 25.9873 465.73 24.4586 468.406 22.5478C473.376 29.8089 475.67 38.5987 475.67 47.3885C476.434 61.9108 469.171 74.9045 458.467 83.3121ZM379.332 12.6115L378.568 13.3758C375.892 15.6688 369.393 22.1656 370.54 29.4268V29.8089L370.922 31.3376L371.686 30.5732C375.509 27.1338 378.568 21.0191 379.715 14.1401L380.097 12.2293L379.332 12.6115ZM366.334 24.8408L365.952 25.6051C365.57 26.7516 364.805 29.4268 364.423 32.4841C363.658 37.0701 364.041 43.949 367.864 48.9172L368.246 49.6815L368.628 50.4459L369.393 47.3885C370.157 42.0382 369.01 30.9554 367.099 25.9873L366.334 24.4586V24.8408ZM361.747 43.949V44.7134C361.365 49.2994 361.747 61.1465 371.304 67.6433L372.451 68.4076V66.879C372.451 62.293 367.099 48.9172 363.276 44.3312L362.129 42.8025L361.747 43.949ZM363.276 64.9682V65.7325C364.805 72.6115 370.922 83.3121 380.861 86.7516L382.391 87.1338L382.008 85.6051C380.097 80.6369 370.54 68.7898 364.423 64.9682L363.276 64.2038V64.9682ZM383.538 22.9299L382.391 23.3121C375.127 27.8981 371.686 33.2484 371.686 40.1274V41.656L372.833 40.8917C376.656 37.4522 382.008 29.0446 383.155 24.4586L383.538 22.5478V22.9299ZM378.95 37.4522L378.568 38.2166C376.656 40.1274 370.54 46.6242 370.922 54.6497C370.922 55.7962 371.304 57.3248 371.686 58.4713L372.069 59.6178L372.833 58.4713C375.892 54.2675 379.715 43.5669 379.332 38.5987V37.0701L378.95 37.4522ZM379.332 51.5924L378.95 52.3567C375.892 56.9427 374.363 61.5287 374.363 66.1146C374.363 69.172 375.509 72.2293 377.421 75.2866L378.185 76.4331L378.568 75.2866C379.715 72.6115 380.861 64.586 380.861 58.0892C380.861 55.7962 380.479 53.8854 380.097 52.7389L379.715 51.2102L379.332 51.5924ZM382.773 66.4968L382.391 67.2611C381.626 70.3185 380.861 72.9936 381.244 76.051C381.244 82.1656 384.302 87.1338 389.654 90.5732L390.419 90.9554L390.801 89.8089V88.6624C390.801 83.6943 386.978 70.7006 383.92 66.879L383.155 65.7325L382.773 66.4968ZM372.451 86.3694L372.833 87.1338C376.656 93.6306 383.538 102.42 396.153 100.127H397.3L396.535 99.3631C394.242 95.9236 378.95 87.1338 373.598 86.3694L372.069 85.9873L372.451 86.3694ZM391.183 103.185L389.272 103.567L391.183 104.331C399.211 107.771 409.151 108.535 415.268 106.624C417.561 105.86 418.708 104.713 420.238 103.185C430.559 104.331 440.117 112.739 445.851 119.618L446.233 120H446.616C447.38 119.618 448.145 118.854 448.527 118.471L448.909 118.089L448.527 117.707C442.793 110.064 433.618 105.478 433.235 105.096C424.825 101.274 410.298 98.2166 391.183 103.185Z" fill="#F3F3F9"/>
<path d="M391.566 81.7834V82.5478C392.713 90.1911 395.771 100.127 408.769 98.9809H409.533L409.151 98.2166C408.386 94.7771 396.535 84.8408 392.33 82.1656L391.183 81.4013L391.566 81.7834ZM481.786 11.8471L482.169 13.7579C483.316 20.6369 486.374 26.7516 490.197 30.1911L490.961 30.9554L491.344 29.4267V29.0446C492.491 21.7834 485.992 15.2866 483.316 12.9936L482.551 12.2293L481.786 11.8471ZM495.167 24.0764L494.402 25.6051C492.491 30.5732 491.726 41.656 492.108 47.0064L492.873 50.0637L493.255 49.6815L493.638 48.9172C497.843 43.949 497.843 37.4522 497.078 32.4841C496.696 29.0446 495.931 26.7516 495.549 25.6051L495.167 24.8408V24.0764ZM500.136 43.1847L498.99 44.7134C495.167 49.6815 489.815 62.6752 489.815 67.2611V68.7898L490.961 68.0255C500.519 61.9108 500.901 50.0637 500.519 45.0955V44.3312L500.136 43.1847ZM498.607 64.2038L497.078 64.9681C490.961 68.7898 481.404 80.6369 479.493 85.6051L479.11 87.1337L480.64 86.7516C490.579 83.6943 497.078 72.6115 498.225 65.7325V64.9681L498.607 64.2038ZM478.346 22.1656L478.728 24.0764C480.257 29.0446 484.845 37.4522 489.05 40.8917L490.197 41.656V40.1274C490.579 33.2484 487.139 27.8981 479.875 23.3121L479.11 22.9299L478.346 22.1656ZM482.551 37.0701V38.5987C482.169 43.5669 486.374 54.6497 489.05 58.4713L489.815 59.6178L490.197 58.4713C490.579 56.9427 490.961 55.7962 490.961 54.6497C491.344 46.6242 485.227 40.1274 483.316 38.2165L482.933 37.8344L482.551 37.0701ZM482.169 50.828L481.786 52.3567C481.404 53.5032 481.022 55.414 481.022 57.707C481.022 64.2038 481.786 72.2293 483.316 74.9045L483.698 76.0509L484.462 74.9045C486.374 72.2293 487.521 69.172 487.521 65.7325C487.521 61.5287 485.992 56.5605 482.933 51.9745L482.551 51.2102L482.169 50.828ZM478.728 65.7325L477.964 66.879C474.905 70.7006 471.082 83.6943 471.082 88.6624V89.8089L471.465 90.9554L472.229 90.5732C477.581 87.1338 480.257 82.1656 480.64 76.0509C480.64 73.3758 480.257 70.3185 479.493 67.2611L479.11 66.4968L478.728 65.7325ZM489.815 85.6051L488.285 85.9873C482.933 86.7516 467.642 95.5414 465.348 98.9809L464.583 99.7452H465.73C478.346 102.038 485.227 93.2484 489.05 86.7516L489.432 85.9873L489.815 85.6051ZM429.03 105.096C428.648 105.096 419.473 110.064 413.739 117.707L413.356 118.089L413.739 118.471C414.121 118.853 415.268 119.618 415.65 120H416.032L416.415 119.618C422.149 112.739 431.706 103.949 442.028 103.185C443.557 104.713 445.086 105.86 446.998 106.624C452.732 108.535 463.054 107.771 471.082 104.331L472.994 103.567L471.082 103.185C451.585 98.2166 437.058 101.274 429.03 105.096ZM470.318 81.0191L469.171 81.7834C464.966 84.4586 453.497 94.3949 452.35 97.8344L451.968 98.5987H452.732C465.348 99.7452 468.406 89.8089 469.935 82.1656V81.4013L470.318 81.0191ZM147.664 4.58598H163.72V19.1083H147.664V4.58598ZM149.193 35.9236H162.573V107.006H149.193V35.9236ZM47.8854 35.9236H61.2656V107.006H48.2677V96.6879H47.8854C42.5333 105.478 33.3583 109.299 23.4187 109.299C8.50934 109.299 0.0989227 97.8344 0.0989227 83.6943V35.9236H13.4791V77.9618C13.4791 90.1911 16.1552 99.3631 29.1531 99.3631C34.5052 99.3631 42.151 96.6879 44.8271 89.0446C47.5031 82.5478 47.5031 74.1401 47.5031 72.2293V35.9236H47.8854ZM88.026 46.242C92.9958 37.4522 102.553 33.6306 109.817 33.6306C114.786 33.6306 136.577 34.7771 136.577 57.707V106.624H123.197V61.9108C123.197 50.0637 118.227 43.949 106.758 43.949C106.758 43.949 99.4948 43.5669 93.7604 49.2994C91.8489 51.2102 88.026 54.2675 88.026 68.4076V107.006H74.6458V35.9236H88.026V46.242ZM218.77 58.4713C218.005 49.6815 213.8 43.5669 204.243 43.5669C191.627 43.5669 186.657 54.6497 186.657 71.0828C186.657 87.5159 191.627 98.5987 204.243 98.5987C213.035 98.5987 218.387 92.8662 219.152 82.5478H232.532C231.385 98.5987 219.534 108.153 203.86 108.153C181.305 108.153 172.13 92.1019 172.13 71.465C172.13 50.828 182.452 33.6306 205.007 33.6306C219.917 33.6306 231.003 43.1847 231.768 58.4713H218.77ZM252.411 73.758C251.265 85.9873 256.617 98.9809 269.997 98.9809C280.319 98.9809 285.671 94.7771 287.2 84.4586H301.345C299.051 100.51 286.818 108.535 269.997 108.535C247.442 108.535 238.267 92.4841 238.267 71.8471C238.267 51.2102 248.589 34.0127 271.144 34.0127C292.17 34.3949 302.109 47.7707 302.109 67.2611V73.758H252.411ZM288.347 64.586C288.729 52.7388 283.377 43.5669 270.379 43.5669C259.293 43.5669 252.794 53.121 252.794 64.586H288.347ZM317.401 106.242V45.0955H305.168V35.9236H317.401V20.6369C317.783 5.35031 329.634 1.14648 339.574 1.14648C342.632 1.14648 346.073 1.91082 349.131 2.67515V13.7579C346.838 13.7579 344.544 13.3758 342.25 13.3758C334.604 13.3758 330.399 15.2866 330.781 22.9299V35.9236H347.22V45.0955H330.781V106.242H317.401Z" fill="#F3F3F9"/>
</g>
<defs>
<clipPath id="clip0_11_2">
<rect width="501" height="120" fill="white"/>
</clipPath>
</defs>
</svg>
