<svg width="335" height="289" viewBox="0 0 335 289" fill="none" xmlns="http://www.w3.org/2000/svg">
<path d="M166.926 0C104.297 0 52.7205 50.621 52.7205 114.127C52.7205 176.713 103.376 228.255 166.926 228.255C229.554 228.255 281.131 177.634 281.131 114.127C281.131 50.621 229.554 0 166.926 0ZM255.343 50.621C249.817 54.3026 243.37 57.9841 236.923 61.6656C233.239 54.3025 228.633 46.9395 223.107 40.4968C227.712 37.7357 232.317 34.0541 236.002 31.293C244.291 35.8949 250.738 43.258 255.343 50.621ZM207.45 12.8854C216.66 16.5669 224.949 21.1688 233.239 27.6115C229.554 31.293 224.949 34.0541 220.344 36.8153C214.818 30.3726 208.371 24.8503 201.924 19.328C203.766 16.5669 205.608 14.7261 207.45 12.8854ZM216.66 38.6561C210.213 42.3376 203.766 44.1783 197.319 46.9395C194.556 40.4968 191.793 34.0541 188.109 28.5318C191.793 26.6911 195.477 24.8503 198.24 22.0892C204.687 26.6911 211.134 32.2134 216.66 38.6561ZM202.845 11.0446C201.003 12.8854 199.161 14.7261 198.24 16.5669C191.793 12.8854 186.267 9.20382 178.899 6.44268C187.188 6.44268 195.477 8.28344 202.845 11.0446ZM194.556 19.328C191.793 21.1688 189.03 23.0096 186.267 23.9299C182.583 18.4076 178.899 13.8057 175.215 8.28344C181.662 11.0446 188.109 14.7261 194.556 19.328ZM168.768 9.20382C173.373 13.8057 177.057 19.328 180.741 25.7707C177.057 26.6911 173.373 27.6115 168.768 27.6115V9.20382ZM168.768 32.2134C173.373 32.2134 178.899 31.293 183.504 29.4522C187.188 34.9745 189.951 41.4172 192.714 47.8599C185.346 49.7006 177.057 50.621 168.768 51.5414V32.2134ZM164.163 9.20382V27.6115C160.479 27.6115 156.795 26.6911 152.19 25.7707C156.795 20.2484 160.479 14.7261 164.163 9.20382ZM148.506 23.9299C145.743 23.0096 142.059 21.1688 140.217 19.328C146.664 15.6465 153.111 11.965 159.558 9.20382C154.953 13.8057 151.269 18.4076 148.506 23.9299ZM154.953 5.52229C148.506 8.28344 142.059 11.965 135.611 15.6465C133.769 13.8057 131.927 11.965 131.006 10.1242C138.374 8.28344 146.664 6.44268 154.953 5.52229ZM233.239 200.643C218.502 192.36 217.581 180.395 218.502 176.713C219.423 172.111 222.186 173.952 224.028 173.952C234.16 173.952 244.291 171.191 257.185 157.385C271.921 142.659 276.526 109.525 253.501 88.3567C229.554 65.3471 203.766 69.0287 187.188 90.1975C183.504 94.7994 175.215 97.5605 168.768 97.5605C157.716 97.5605 165.084 105.844 165.084 107.685C165.084 109.525 163.242 110.446 162.321 110.446C158.637 109.525 160.479 115.048 160.479 115.968C160.479 116.889 158.637 118.729 158.637 118.729C154.032 118.729 154.953 122.411 155.874 124.252C155.874 125.172 155.874 127.013 154.032 127.933C152.19 128.854 151.269 132.535 151.269 135.296C151.269 139.898 155.874 143.58 163.242 149.102C170.61 154.624 171.531 160.146 171.531 163.828C171.531 167.51 172.452 173.952 173.373 177.634C175.215 182.236 175.215 191.439 165.084 191.439C152.19 192.36 130.085 201.564 128.243 202.484C120.875 205.245 111.665 206.166 104.297 204.325C100.613 201.564 96.929 198.803 93.2449 195.121C91.4029 190.519 94.166 184.997 96.929 181.315C101.534 185.917 107.06 184.997 110.744 184.997C114.428 184.997 131.006 182.236 133.769 181.315C136.532 180.395 137.453 180.395 138.374 181.315C144.822 184.076 154.032 184.076 157.716 172.111C161.4 159.226 153.111 162.908 151.269 163.828C150.348 164.748 148.506 163.828 149.427 162.908C151.269 160.147 148.506 160.147 147.585 160.147C143.901 160.147 139.295 163.828 138.374 164.748C136.532 165.669 135.611 165.669 134.69 165.669C130.085 162.908 116.27 166.589 111.665 159.226C111.665 157.385 107.981 127.013 106.139 121.49C106.139 120.57 105.218 118.729 107.06 116.889C110.744 111.366 119.954 116.889 125.48 116.889C131.927 116.889 132.848 114.127 134.69 112.287C136.532 110.446 137.453 111.366 138.374 110.446C139.295 109.525 138.374 108.605 138.374 107.685C138.374 106.764 139.296 107.685 140.217 106.764C141.138 105.844 140.217 104.003 140.217 103.083C142.059 100.322 145.743 102.162 143.901 96.6401C142.979 92.9586 144.822 89.2771 146.664 87.4363C149.427 83.7548 161.4 67.1879 141.138 49.7006C121.796 33.1338 101.534 34.9745 88.6399 48.7803C75.7457 62.586 82.1928 82.8344 83.1138 88.3567C84.0349 93.879 80.3509 98.4809 75.7458 100.322C72.0618 102.162 63.7727 107.685 58.2466 112.287C59.1676 68.1083 85.8769 29.4522 126.401 13.8057C128.243 15.6465 130.085 18.4076 131.927 20.2484C127.322 23.9299 117.191 32.2134 117.191 32.2134C117.191 32.2134 118.112 32.2134 119.954 33.1338C120.875 33.1338 122.717 34.0541 122.717 34.0541C122.717 34.0541 131.006 26.6911 135.611 23.9299C138.374 26.6911 142.059 28.5318 145.743 30.3726C143.901 34.0541 138.374 43.258 138.374 43.258C138.374 43.258 139.296 44.1783 140.217 44.1783C141.138 45.0987 142.059 45.0987 142.059 45.0987C142.059 45.0987 147.585 34.9745 149.427 31.293C154.032 33.1338 158.637 34.0541 163.242 34.0541V52.4618C160.479 52.4618 154.032 52.4618 151.269 51.5414H149.427L150.348 53.3822C151.269 54.3026 151.269 55.2229 152.19 56.1433H163.242V90.1975H167.847V81.914C175.215 81.914 180.741 80.9936 187.188 80.0733L193.635 74.551H189.951C182.583 75.4713 176.136 76.3917 170.61 76.3917H167.847V55.2229C176.136 55.2229 185.346 54.3025 193.635 51.5414L200.082 70.8694L204.687 69.0287L198.24 49.7006C205.608 47.8599 212.055 44.1783 218.502 41.4172C224.028 47.8599 228.633 55.2229 232.318 62.586C228.633 64.4268 223.107 66.2675 223.107 66.2675C227.712 67.1879 231.396 68.1083 231.396 68.1083C231.396 68.1083 233.239 67.1879 234.16 67.1879C234.16 68.1083 235.081 69.949 235.081 69.949L241.528 72.7102L240.607 70.8694C240.607 70.8694 238.765 66.2675 237.844 65.3471C244.291 62.586 250.738 58.9045 257.185 54.3026C269.158 71.7898 274.684 92.9586 274.684 114.127C276.526 149.102 259.027 180.395 233.239 200.643ZM42.5894 30.3726L40.7474 32.2134C34.3003 37.7357 18.6432 53.3822 21.4062 70.8694V71.7898L22.3272 75.4713L24.1692 73.6306C33.3793 65.3471 40.7474 50.621 43.5104 34.0541L44.4314 29.4522L42.5894 30.3726ZM11.2751 59.8248L10.354 61.6656C9.43301 64.4268 7.59105 70.8694 6.67004 78.2325C4.82802 89.2771 5.74897 105.844 14.9591 117.809L15.8801 119.65L16.8011 121.49L18.6431 114.127C20.4851 101.242 17.7221 74.551 13.1171 62.586L11.2751 58.9045V59.8248ZM0.222924 105.844V107.685C-0.698086 118.729 0.222924 147.261 23.2482 162.908L26.0112 164.748V161.067C26.0112 150.022 13.1171 117.809 3.90698 106.764L1.14392 103.083L0.222924 105.844ZM3.90698 156.465V158.306C7.59102 174.873 22.3272 200.643 46.2734 208.927L49.9575 209.847L49.0365 206.166C44.4314 194.201 21.4062 165.669 6.67004 156.465L3.90698 154.624V156.465ZM52.7205 55.2229L49.9575 56.1433C32.4583 67.1879 24.1692 80.0733 24.1692 96.6401V100.322L26.9322 98.4809C36.1423 90.1975 49.0365 69.949 51.7995 58.9045L52.7205 54.3026V55.2229ZM41.6684 90.1975L40.7474 92.0382C36.1423 96.6401 21.4062 112.287 22.3272 131.615C22.3272 134.376 23.2482 138.057 24.1692 140.818L25.0902 143.58L26.9322 140.818C34.3003 130.694 43.5104 104.924 42.5894 92.9586V89.2771L41.6684 90.1975ZM42.5894 124.252L41.6684 126.092C34.3003 137.137 30.6163 148.182 30.6163 159.226C30.6163 166.589 33.3793 173.952 37.9843 181.315L39.8264 184.076L40.7474 181.315C43.5104 174.873 46.2734 155.545 46.2734 139.898C46.2734 134.376 45.3525 129.774 44.4314 127.013L43.5104 123.331L42.5894 124.252ZM50.8785 160.147L49.9575 161.987C48.1155 169.35 46.2734 175.793 47.1944 183.156C47.1944 197.882 54.5626 209.847 67.4567 218.131L69.2987 219.051L70.2197 216.29V213.529C70.2197 201.564 61.0096 170.271 53.6415 161.067L51.7995 158.306L50.8785 160.147ZM26.0112 208.006L26.9322 209.847C36.1423 225.494 52.7205 246.662 83.1138 241.14H85.8769L84.0348 239.299C78.5088 231.016 41.6684 209.847 28.7742 208.006L25.0902 207.086L26.0112 208.006ZM71.1408 248.503L66.5357 249.424L71.1408 251.264C90.482 259.548 114.428 261.389 129.164 256.787C134.69 254.946 137.453 252.185 141.138 248.503C166.005 251.264 189.03 271.513 202.845 288.08L203.766 289H204.687C206.529 288.08 208.371 286.239 209.292 285.318L210.213 284.398L209.292 283.478C195.477 265.07 173.373 254.025 172.452 253.105C152.19 243.901 117.191 236.538 71.1408 248.503Z" fill="#556EE6" fill-opacity="0.9"/>
<path d="M72.0618 196.962V198.803C74.8248 217.21 82.1929 241.14 113.507 238.379H115.349L114.428 236.538C112.586 228.255 84.0349 204.325 73.9038 197.882L71.1408 196.041L72.0618 196.962ZM289.42 28.5318L290.341 33.1338C293.104 49.7006 300.472 64.4268 309.682 72.7102L311.524 74.551L312.445 70.8694V69.949C315.209 52.4618 299.551 36.8153 293.104 31.293L291.262 29.4522L289.42 28.5318ZM321.656 57.9841L319.814 61.6656C315.208 73.6306 313.366 100.322 314.287 113.207L316.129 120.57L317.05 119.65L317.972 117.809C328.103 105.844 328.103 90.1974 326.261 78.2325C325.34 69.949 323.498 64.4267 322.577 61.6656L321.656 59.8248V57.9841ZM333.629 104.003L330.866 107.685C321.656 119.65 308.761 150.943 308.761 161.987V165.669L311.524 163.828C334.55 149.102 335.471 120.57 334.55 108.605V106.764L333.629 104.003ZM329.945 154.624L326.261 156.465C311.524 165.669 288.499 194.201 283.894 206.166L282.973 209.847L286.657 208.927C310.603 201.564 326.261 174.873 329.024 158.306V156.465L329.945 154.624ZM281.131 53.3822L282.052 57.9841C285.736 69.949 296.788 90.1975 306.919 98.4809L309.682 100.322V96.6401C310.603 80.0732 302.314 67.1879 284.815 56.1433L282.973 55.2229L281.131 53.3822ZM291.262 89.2771V92.9586C290.341 104.924 300.472 131.615 306.919 140.818L308.761 143.58L309.682 140.818C310.603 137.137 311.524 134.376 311.524 131.615C312.445 112.287 297.709 96.6401 293.104 92.0382L292.183 91.1178L291.262 89.2771ZM290.341 122.411L289.42 126.092C288.499 128.854 287.578 133.455 287.578 138.978C287.578 154.624 289.42 173.952 293.104 180.395L294.025 183.156L295.867 180.395C300.472 173.952 303.235 166.589 303.235 158.306C303.235 148.182 299.551 136.217 292.183 125.172L291.262 123.331L290.341 122.411ZM282.052 158.306L280.21 161.067C272.842 170.271 263.632 201.564 263.632 213.529V216.29L264.553 219.051L266.395 218.131C279.289 209.847 285.736 197.882 286.657 183.156C286.657 176.713 285.736 169.35 283.894 161.987L282.973 160.146L282.052 158.306ZM308.761 206.166L305.077 207.086C292.183 208.927 255.343 230.096 249.817 238.379L247.975 240.22H250.738C281.131 245.742 297.709 224.573 306.919 208.927L307.84 207.086L308.761 206.166ZM162.321 253.105C161.4 253.105 139.295 265.07 125.48 283.478L124.559 284.398L125.48 285.318C126.401 286.239 129.164 288.08 130.085 289H131.006L131.927 288.08C145.743 271.513 168.768 250.344 193.635 248.503C197.319 252.185 201.003 254.946 205.608 256.787C219.423 261.389 244.291 259.548 263.632 251.264L268.237 249.424L263.632 248.503C216.66 236.538 181.662 243.901 162.321 253.105ZM261.79 195.121L259.027 196.962C248.896 203.404 221.265 227.334 218.502 235.618L217.581 237.459H219.423C249.817 240.22 257.185 216.29 260.869 197.882V196.041L261.79 195.121Z" fill="#556EE6" fill-opacity="0.9"/>
</svg>
