<?xml version="1.0" standalone="no"?>
<!DOCTYPE svg PUBLIC "-//W3C//DTD SVG 1.0//EN" "http://www.w3.org/TR/2001/REC-SVG-20010904/DTD/svg10.dtd">
<svg xmlns="http://www.w3.org/2000/svg" xmlns:xlink="http://www.w3.org/1999/xlink" id="body_1" width="100" height="24">

<g transform="matrix(0.7633588 0 0 0.7633588 -0 0.015267525)">
	<g>
        <path d="M112.7 0C 105.899994 0 100.299995 5.5 100.299995 12.4C 100.299995 19.2 105.799995 24.8 112.7 24.8C 119.5 24.8 125.1 19.3 125.1 12.4C 125.1 5.5 119.5 0 112.7 0zM122.299995 5.5C 121.7 5.9 120.99999 6.3 120.299995 6.7C 119.899994 5.8999996 119.399994 5.1 118.799995 4.3999996C 119.299995 4.0999994 119.799995 3.6999996 120.2 3.3999996C 121.1 3.8999996 121.799995 4.7 122.299995 5.4999995zM117.1 1.4000001C 118.1 1.8000001 119 2.3000002 119.9 3C 119.5 3.4 119 3.7 118.5 4C 117.9 3.3 117.2 2.7 116.5 2.1C 116.7 1.8 116.9 1.5999999 117.1 1.3999999zM118.1 4.2C 117.4 4.6 116.7 4.7999997 116 5.1C 115.7 4.4 115.4 3.6999998 115 3.1C 115.4 2.8999999 115.8 2.6999998 116.1 2.3999999C 116.799995 2.8999999 117.5 3.5 118.1 4.2zM116.6 1.1999998C 116.4 1.3999999 116.2 1.5999998 116.1 1.7999998C 115.4 1.3999999 114.799995 0.9999998 114 0.6999998C 114.9 0.6999998 115.8 0.8999998 116.6 1.1999998zM115.7 2.1C 115.399994 2.3 115.1 2.5 114.799995 2.6C 114.399994 1.9999999 113.99999 1.4999999 113.6 0.89999986C 114.299995 1.1999998 115 1.5999999 115.7 2.1zM112.899994 0.9999999C 113.399994 1.4999999 113.799995 2.1 114.2 2.7999997C 113.799995 2.8999996 113.399994 2.9999998 112.899994 2.9999998zM112.899994 3.5C 113.399994 3.5 113.99999 3.4 114.49999 3.2C 114.899994 3.8000002 115.19999 4.5 115.49999 5.2C 114.69999 5.3999996 113.799995 5.5 112.899994 5.6zM112.399994 1L112.399994 3C 111.99999 3 111.59999 2.9 111.09999 2.8C 111.59999 2.1999998 111.99999 1.5999999 112.399994 1zM110.7 2.6C 110.399994 2.5 110 2.3 109.799995 2.1C 110.49999 1.6999999 111.2 1.3 111.899994 0.9999999C 111.399994 1.4999999 110.99999 1.9999999 110.7 2.6zM111.399994 0.5999999C 110.7 0.8999999 109.99999 1.3 109.299995 1.6999999C 109.1 1.4999999 108.899994 1.3 108.799995 1.0999999C 109.6 0.8999999 110.49999 0.6999999 111.399994 0.5999999zM119.899994 21.800001C 118.299995 20.900002 118.2 19.6 118.299995 19.2C 118.399994 18.7 118.7 18.900002 118.899994 18.900002C 119.99999 18.900002 121.09999 18.600002 122.49999 17.100002C 124.09999 15.500002 124.59999 11.9000025 122.09999 9.600002C 119.49999 7.1000023 116.69999 7.5000024 114.899994 9.800002C 114.49999 10.300002 113.59999 10.600002 112.899994 10.600002C 111.7 10.600002 112.49999 11.500002 112.49999 11.700003C 112.49999 11.900003 112.299995 12.000003 112.19999 12.000003C 111.79999 11.9000025 111.99999 12.500003 111.99999 12.600003C 111.99999 12.700004 111.799995 12.900003 111.799995 12.900003C 111.299995 12.900003 111.399994 13.300003 111.49999 13.500004C 111.49999 13.600004 111.49999 13.800004 111.299995 13.900003C 111.1 14.000003 110.99999 14.400003 110.99999 14.700004C 110.99999 15.200004 111.49999 15.600003 112.299995 16.200005C 113.1 16.800007 113.2 17.400005 113.2 17.800005C 113.2 18.200005 113.299995 18.900005 113.399994 19.300005C 113.59999 19.800005 113.59999 20.800005 112.49999 20.800005C 111.09999 20.900005 108.69999 21.900005 108.49999 22.000006C 107.69999 22.300005 106.69999 22.400005 105.899994 22.200006C 105.49999 21.900007 105.09999 21.600006 104.7 21.200006C 104.5 20.700006 104.799995 20.100006 105.1 19.700006C 105.6 20.200006 106.2 20.100006 106.6 20.100006C 107 20.100006 108.799995 19.800007 109.1 19.700006C 109.4 19.600006 109.5 19.600006 109.6 19.700006C 110.299995 20.000006 111.299995 20.000006 111.7 18.700006C 112.1 17.300007 111.2 17.700006 111 17.800007C 110.9 17.900007 110.7 17.800007 110.8 17.700006C 111 17.400007 110.700005 17.400007 110.600006 17.400007C 110.200005 17.400007 109.700005 17.800007 109.600006 17.900007C 109.40001 18.000008 109.3 18.000008 109.200005 18.000008C 108.700005 17.700008 107.200005 18.100008 106.700005 17.300007C 106.700005 17.100006 106.3 13.800007 106.100006 13.2000065C 106.100006 13.100006 106.00001 12.900006 106.200005 12.7000065C 106.600006 12.100006 107.600006 12.7000065 108.200005 12.7000065C 108.9 12.7000065 109.00001 12.400006 109.200005 12.2000065C 109.4 12.000007 109.50001 12.100006 109.600006 12.000007C 109.700005 11.900007 109.600006 11.800007 109.600006 11.7000065C 109.600006 11.600006 109.700005 11.7000065 109.8 11.600006C 109.9 11.500006 109.8 11.300006 109.8 11.2000065C 110 10.900006 110.4 11.100006 110.200005 10.500007C 110.100006 10.100007 110.3 9.7000065 110.50001 9.500007C 110.80001 9.100007 112.100006 7.300007 109.90001 5.400007C 107.80001 3.6000068 105.600006 3.8000069 104.20001 5.300007C 102.80002 6.800007 103.500015 9.000007 103.60001 9.600007C 103.70001 10.200007 103.30001 10.700007 102.80001 10.900007C 102.40001 11.100007 101.50001 11.700007 100.90001 12.200007C 101.00001 7.4000072 103.90001 3.2000074 108.30001 1.5000076C 108.50001 1.7000077 108.70001 2.0000076 108.90001 2.2000077C 108.40001 2.6000078 107.30001 3.5000076 107.30001 3.5000076C 107.30001 3.5000076 107.40001 3.5000076 107.60001 3.6000075C 107.70001 3.6000075 107.90002 3.7000074 107.90002 3.7000074C 107.90002 3.7000074 108.80002 2.9000075 109.30002 2.6000075C 109.60002 2.9000075 110.000015 3.1000075 110.40002 3.3000076C 110.20002 3.7000077 109.60001 4.7000074 109.60001 4.7000074C 109.60001 4.7000074 109.70001 4.8000073 109.80001 4.8000073C 109.90001 4.9000072 110.00001 4.9000072 110.00001 4.9000072C 110.00001 4.9000072 110.600006 3.8000073 110.80001 3.4000072C 111.30001 3.6000073 111.80001 3.7000072 112.30001 3.7000072L112.30001 3.7000072L112.30001 5.7000074C 112.00001 5.7000074 111.30001 5.7000074 111.00001 5.6000075L111.00001 5.6000075L110.80001 5.6000075L110.90001 5.8000073C 111.00001 5.9000072 111.00001 6.000007 111.100006 6.1000075L111.100006 6.1000075L112.3 6.1000075L112.3 9.800008L112.8 9.800008L112.8 8.900008C 113.600006 8.900008 114.200005 8.800008 114.9 8.700008L114.9 8.700008L115.6 8.100008L115.2 8.100008C 114.399994 8.200008 113.7 8.300008 113.1 8.300008L113.1 8.300008L112.799995 8.300008L112.799995 6.0000076C 113.7 6.0000076 114.7 5.9000077 115.6 5.6000075L115.6 5.6000075L116.299995 7.7000074L116.799995 7.5000076L116.1 5.4000077C 116.9 5.200008 117.6 4.800008 118.299995 4.5000076C 118.899994 5.2000074 119.399994 6.0000076 119.799995 6.800008C 119.399994 7.0000076 118.799995 7.200008 118.799995 7.200008C 119.299995 7.300008 119.7 7.4000077 119.7 7.4000077C 119.7 7.4000077 119.899994 7.300008 120 7.300008C 120 7.4000077 120.1 7.600008 120.1 7.600008L120.1 7.600008L120.799995 7.900008L120.7 7.7000084C 120.7 7.7000084 120.5 7.2000084 120.399994 7.1000085C 121.09999 6.8000083 121.799995 6.4000087 122.49999 5.900008C 123.799995 7.8000083 124.399994 10.100008 124.399994 12.400008C 124.59999 16.200008 122.7 19.600008 119.899994 21.800007zM99.2 3.3000011L99 3.5000012C 98.3 4.1000013 96.6 5.800001 96.9 7.700001L96.9 7.700001L96.9 7.8000007L97 8.200001L97.2 8.000001C 98.2 7.100001 99 5.500001 99.299995 3.7000008L99.299995 3.7000008L99.399994 3.2000008zM95.799995 6.500001L95.7 6.700001C 95.6 7.000001 95.399994 7.700001 95.299995 8.500001C 95.1 9.700001 95.2 11.500001 96.2 12.800001L96.2 12.800001L96.299995 13.000001L96.399994 13.200001L96.59999 12.400001C 96.79999 11.000001 96.49999 8.1 95.99999 6.8000007L95.99999 6.8000007L95.799995 6.4000006zM94.6 11.500001L94.6 11.700001C 94.5 12.900001 94.6 16 97.1 17.7L97.1 17.7L97.4 17.900002L97.4 17.500002C 97.4 16.300001 96 12.800002 95 11.600002L95 11.600002L94.7 11.200003zM95 17L95 17.2C 95.4 19 97 21.800001 99.6 22.7L99.6 22.7L100 22.800001L99.9 22.400002C 99.4 21.100002 96.9 18.000002 95.3 17.000002L95.3 17.000002L95 16.800001zM100.3 6L100 6.1C 98.1 7.3 97.2 8.7 97.2 10.5L97.2 10.5L97.2 10.9L97.5 10.7C 98.5 9.8 99.9 7.6 100.2 6.3999996L100.2 6.3999996L100.299995 5.8999996zM99.100006 9.8L99.00001 10C 98.50001 10.5 96.90001 12.2 97.00001 14.3C 97.00001 14.6 97.100006 15 97.200005 15.3L97.200005 15.3L97.3 15.6L97.5 15.3C 98.3 14.2 99.3 11.4 99.2 10.1L99.2 10.1L99.2 9.700001zM99.200005 13.5L99.100006 13.7C 98.3 14.9 97.90001 16.1 97.90001 17.3C 97.90001 18.099998 98.20001 18.9 98.70001 19.699999L98.70001 19.699999L98.90001 19.999998L99.00001 19.699999C 99.30001 18.999998 99.600006 16.9 99.600006 15.199999C 99.600006 14.599998 99.50001 14.099998 99.40001 13.799999L99.40001 13.799999L99.30001 13.4zM100.100006 17.4L100.00001 17.6C 99.80001 18.4 99.600006 19.1 99.700005 19.9C 99.700005 21.5 100.50001 22.8 101.9 23.699999L101.9 23.699999L102.1 23.8L102.2 23.5L102.2 23.2C 102.2 21.900002 101.2 18.5 100.399994 17.5L100.399994 17.5L100.2 17.2zM97.40001 22.599998L97.50001 22.8C 98.50001 24.5 100.30001 26.8 103.600006 26.199999L103.600006 26.199999L103.90001 26.199999L103.70001 25.999998C 103.10001 25.099998 99.10001 22.799997 97.70001 22.599998L97.70001 22.599998L97.30001 22.499998zM102.30001 26.999998L101.80001 27.099998L102.30001 27.3C 104.40001 28.199999 107.00001 28.4 108.60001 27.9C 109.20001 27.699999 109.500015 27.4 109.90002 27C 112.60001 27.3 115.10001 29.5 116.60001 31.3L116.60001 31.3L116.70001 31.4L116.80001 31.4C 117.00001 31.3 117.20001 31.1 117.30001 31L117.30001 31L117.40001 30.9L117.30001 30.8C 115.80001 28.8 113.40001 27.599998 113.30001 27.5C 111.10001 26.5 107.30001 25.7 102.30001 27" stroke="none" fill="#00AEEF" fill-rule="nonzero" />
        <path d="M102.4 21.4L102.4 21.6C 102.700005 23.6 103.5 26.2 106.9 25.900002L106.9 25.900002L107.1 25.900002L107 25.7C 106.8 24.800001 103.7 22.2 102.6 21.5L102.6 21.5L102.299995 21.3L102.4 21.4zM126 3.1000004L126.1 3.6000004C 126.4 5.4000006 127.2 7.0000005 128.2 7.9000006L128.2 7.9000006L128.4 8.1L128.5 7.7000003L128.5 7.6000004C 128.8 5.7000003 127.1 4.0000005 126.4 3.4000006L126.4 3.4000006L126.200005 3.2000005zM129.5 6.3L129.3 6.7000003C 128.8 8 128.6 10.9 128.7 12.3L128.7 12.3L128.9 13.1L129 13L129.1 12.8C 130.20001 11.5 130.20001 9.8 130 8.5C 129.9 7.6 129.7 7 129.6 6.7L129.6 6.7L129.5 6.5zM130.8 11.3L130.5 11.7C 129.5 13 128.1 16.4 128.1 17.6L128.1 17.6L128.1 18L128.40001 17.8C 130.90001 16.199999 131.00002 13.099999 130.90001 11.799999L130.90001 11.799999L130.90001 11.599999zM130.40001 16.8L130.00002 17C 128.40001 18 125.90002 21.1 125.40002 22.4L125.40002 22.4L125.30002 22.8L125.70002 22.699999C 128.30002 21.9 130.00002 18.999998 130.30002 17.199999L130.30002 17.199999L130.30002 16.999998zM125.100006 5.799999L125.200005 6.299999C 125.600006 7.5999994 126.8 9.799999 127.9 10.699999L127.9 10.699999L128.2 10.899999L128.2 10.499999C 128.3 8.699999 127.399994 7.299999 125.5 6.099999L125.5 6.099999L125.3 5.999999zM126.200005 9.699999L126.200005 10.099998C 126.100006 11.399999 127.200005 14.299998 127.9 15.299998L127.9 15.299998L128.1 15.599998L128.20001 15.299998C 128.30002 14.899999 128.40001 14.599998 128.40001 14.299998C 128.50002 12.199999 126.90001 10.499998 126.40001 9.999998L126.40001 9.999998L126.30001 9.899998zM126.100006 13.299999L126.00001 13.699999C 125.90001 13.999999 125.80001 14.499999 125.80001 15.099998C 125.80001 16.8 126.00001 18.899998 126.40001 19.599998L126.40001 19.599998L126.50001 19.899998L126.700005 19.599998C 127.200005 18.899998 127.50001 18.099998 127.50001 17.199999C 127.50001 16.099998 127.100006 14.799999 126.30001 13.599998L126.30001 13.599998L126.20001 13.399999zM125.200005 17.199999L125.00001 17.499998C 124.200005 18.499998 123.200005 21.899998 123.200005 23.199997L123.200005 23.199997L123.200005 23.499996L123.3 23.799995L123.5 23.699995C 124.9 22.799995 125.6 21.499994 125.7 19.899996C 125.7 19.199995 125.6 18.399996 125.399994 17.599997L125.399994 17.599997L125.299995 17.399996zM128.1 22.399998L127.700005 22.499998C 126.3 22.699999 122.3 24.999998 121.700005 25.899998L121.700005 25.899998L121.50001 26.099998L121.80001 26.099998C 125.10001 26.699999 126.90001 24.399998 127.90001 22.699999L127.90001 22.699999L128.00002 22.499998zM112.200005 27.499998C 112.100006 27.499998 109.700005 28.799997 108.200005 30.799997L108.200005 30.799997L108.100006 30.899998L108.200005 30.999998C 108.3 31.099998 108.600006 31.299997 108.700005 31.399998L108.700005 31.399998L108.8 31.399998L108.9 31.299997C 110.4 29.499998 112.9 27.199997 115.6 26.999996C 116 27.399996 116.4 27.699997 116.9 27.899996C 118.4 28.399996 121.1 28.199995 123.200005 27.299995L123.200005 27.299995L123.700005 27.099995L123.200005 26.999994C 118.100006 25.699995 114.3 26.499994 112.200005 27.499994zM123.00001 21.199997L122.700005 21.399998C 121.600006 22.099998 118.600006 24.699997 118.3 25.599998L118.3 25.599998L118.200005 25.8L118.4 25.8C 121.700005 26.099998 122.5 23.5 122.9 21.5L122.9 21.5L122.9 21.3zM38.600006 1.199997L42.800007 1.199997L42.800007 4.999997L38.600006 4.999997zM39.000008 9.399997L42.500008 9.399997L42.500008 27.999996L39.000008 27.999996zM12.500008 9.399997L16.000008 9.399997L16.000008 27.999996L12.600008 27.999996L12.600008 25.299995L12.500008 25.299995C 11.100008 27.599995 8.700007 28.599995 6.1000075 28.599995C 2.2000074 28.599995 7.6293945E-06 25.599995 7.6293945E-06 21.899994L7.6293945E-06 21.899994L7.6293945E-06 9.399994L3.5000076 9.399994L3.5000076 20.399994C 3.5000076 23.599995 4.2000074 25.999994 7.6000075 25.999994C 9.000008 25.999994 11.000008 25.299994 11.700007 23.299994C 12.400007 21.599993 12.400007 19.399994 12.400007 18.899994L12.400007 18.899994L12.400007 9.399994zM23.000008 12.099997C 24.300007 9.799996 26.800007 8.799996 28.700008 8.799996C 30.000008 8.799996 35.70001 9.099997 35.70001 15.099997L35.70001 15.099997L35.70001 27.899998L32.20001 27.899998L32.20001 16.199997C 32.20001 13.099997 30.90001 11.499997 27.90001 11.499997C 27.90001 11.499997 26.00001 11.399997 24.50001 12.899997C 24.00001 13.399997 23.00001 14.199997 23.00001 17.899998L23.00001 17.899998L23.00001 27.999998L19.50001 27.999998L19.50001 9.399998L23.00001 9.399998zM57.20001 15.299996C 57.000008 12.999996 55.90001 11.399996 53.40001 11.399996C 50.10001 11.399996 48.80001 14.299995 48.80001 18.599995C 48.80001 22.899994 50.10001 25.799995 53.40001 25.799995C 55.70001 25.799995 57.10001 24.299995 57.30001 21.599995L57.30001 21.599995L60.80001 21.599995C 60.50001 25.799995 57.40001 28.299995 53.30001 28.299995C 47.40001 28.299995 45.00001 24.099995 45.00001 18.699995C 45.00001 13.299995 47.700012 8.799995 53.600014 8.799995C 57.500015 8.799995 60.400013 11.299995 60.600014 15.299995zM66.00001 19.299995C 65.700005 22.499996 67.100006 25.899996 70.600006 25.899996C 73.3 25.899996 74.700005 24.799995 75.100006 22.099997L75.100006 22.099997L78.8 22.099997C 78.200005 26.299995 75 28.399998 70.600006 28.399998C 64.700005 28.399998 62.300007 24.199997 62.300007 18.799997C 62.300007 13.399998 65.00001 8.899998 70.90001 8.899998C 76.40001 8.999998 79.00001 12.499998 79.00001 17.599998L79.00001 17.599998L79.00001 19.3zM75.40001 16.899996C 75.50001 13.799995 74.100006 11.399996 70.70001 11.399996C 67.80001 11.399996 66.10001 13.899996 66.10001 16.899996zM83.00001 27.799995L83.00001 11.799995L79.80001 11.799995L79.80001 9.399996L83.00001 9.399996L83.00001 5.399996C 83.100006 1.3999958 86.200005 0.2999959 88.80001 0.2999959C 89.60001 0.2999959 90.50001 0.4999959 91.30001 0.6999959L91.30001 0.6999959L91.30001 3.599996C 90.70001 3.599996 90.10001 3.4999962 89.50001 3.4999962C 87.50001 3.4999962 86.40001 3.9999962 86.50001 5.999996L86.50001 5.999996L86.50001 9.399996L90.80001 9.399996L90.80001 11.799995L86.50001 11.799995L86.50001 27.799995z" stroke="none" fill="#00AEEF" fill-rule="nonzero" />
	</g>
</g>
</svg>